<svg xmlns="http://www.w3.org/2000/svg" width="160" height="30" viewBox="0 0 160 30">
  <style>
    .logo-text { fill: #ffffff; font-family: 'Arial', sans-serif; font-weight: bold; }
    .logo-icon { fill: #4A8AF4; }
  </style>
  <g>
    <path class="logo-icon" d="M18,2c-1.1,0-2,0.9-2,2v8h-8c-1.1,0-2,0.9-2,2v4c0,1.1,0.9,2,2,2h8v8c0,1.1,0.9,2,2,2h4c1.1,0,2-0.9,2-2v-8h8c1.1,0,2-0.9,2-2v-4c0-1.1-0.9-2-2-2h-8V4c0-1.1-0.9-2-2-2H18z"/>
    <text x="40" y="21" class="logo-text" font-size="18">Formatrix</text>
  </g>
</svg>